<?xml version="1.0" standalone="no"?>
<!DOCTYPE svg PUBLIC "-//W3C//DTD SVG 20010904//EN"
 "http://www.w3.org/TR/2001/REC-SVG-20010904/DTD/svg10.dtd">
<svg version="1.0" xmlns="http://www.w3.org/2000/svg"
 width="260.000000pt" height="260.000000pt" viewBox="0 0 260.000000 260.000000"
 preserveAspectRatio="xMidYMid meet">
<metadata>
Created by potrace 1.11, written by Peter Selinger 2001-2013
</metadata>
<g transform="translate(0.000000,260.000000) scale(0.100000,-0.100000)"
fill="#000000" stroke="none">
<path d="M1771 1446 c-6 -7 -8 -21 -5 -30 9 -24 58 -17 62 8 6 31 -36 48 -57
22z"/>
<path d="M1550 1310 l0 -130 30 0 30 0 0 130 0 130 -30 0 -30 0 0 -130z"/>
<path d="M1660 1310 l0 -130 30 0 30 0 0 130 0 130 -30 0 -30 0 0 -130z"/>
<path d="M820 1305 l0 -125 25 0 25 0 0 125 0 125 -25 0 -25 0 0 -125z"/>
<path d="M442 1367 c-29 -29 -52 -59 -52 -68 0 -19 116 -134 123 -122 3 5 -18
34 -48 63 l-54 54 54 57 c30 32 55 60 55 63 0 19 -32 -1 -78 -47z"/>
<path d="M590 1412 c0 -4 22 -33 49 -63 l50 -56 -50 -49 c-27 -26 -49 -55 -49
-63 0 -9 26 11 60 44 33 33 60 66 60 75 0 9 -24 39 -53 68 -51 50 -67 61 -67
44z"/>
<path d="M1180 1385 c0 -14 -4 -25 -10 -25 -5 0 -10 -9 -10 -20 0 -11 5 -20
10 -20 6 0 10 -15 10 -34 0 -40 16 -87 33 -98 16 -10 87 -10 87 0 0 15 -16 30
-35 33 -16 3 -21 13 -23 52 -3 45 -2 47 22 47 19 0 26 5 26 20 0 15 -7 20 -25
20 -20 0 -25 5 -25 25 0 21 -5 25 -30 25 -25 0 -30 -4 -30 -25z"/>
<path d="M1880 1385 c0 -16 -6 -25 -15 -25 -19 0 -20 -26 -1 -37 7 -4 15 -31
18 -60 6 -68 20 -83 74 -83 24 0 44 3 44 8 0 15 -16 30 -35 33 -16 3 -21 13
-23 52 -3 45 -2 47 22 47 19 0 26 5 26 20 0 15 -7 20 -25 20 -20 0 -25 5 -25
25 0 21 -5 25 -30 25 -25 0 -30 -4 -30 -25z"/>
<path d="M930 1275 l0 -95 30 0 c29 0 29 0 32 68 l3 67 35 0 35 0 3 -67 c3
-68 3 -68 32 -68 30 0 30 1 30 54 0 64 -16 113 -40 126 -26 14 -73 12 -89 -2
-11 -10 -14 -10 -18 0 -3 6 -16 12 -29 12 -24 0 -24 -1 -24 -95z"/>
<path d="M1363 1358 c-12 -6 -29 -26 -38 -45 -20 -41 -7 -94 28 -118 25 -17
99 -20 128 -4 31 16 6 39 -35 32 -33 -5 -76 10 -76 27 0 5 33 10 73 12 66 3
72 5 69 23 -10 71 -82 106 -149 73z m85 -40 c21 -21 13 -28 -33 -28 -25 0 -45
4 -45 8 0 15 24 32 45 32 12 0 26 -5 33 -12z"/>
<path d="M1770 1275 c0 -95 0 -95 25 -95 25 0 25 0 25 95 0 95 0 95 -25 95
-25 0 -25 0 -25 -95z"/>
</g>
</svg>
